<?xml version="1.0"?>
<svg xmlns="http://www.w3.org/2000/svg" xmlns:xlink="http://www.w3.org/1999/xlink" xmlns:svgjs="http://svgjs.com/svgjs" version="1.1" width="512" height="512" x="0" y="0" viewBox="0 0 512.00024 512" style="enable-background:new 0 0 512 512" xml:space="preserve" class=""><g><path xmlns="http://www.w3.org/2000/svg" d="m366.675781 495.472656h-221.351562c-25.574219 0-47.707031-17.792968-53.203125-42.769531l-46.773438-212.609375h421.308594l-46.777344 212.609375c-5.496094 24.976563-27.625 42.769531-53.203125 42.769531zm0 0" fill="#ff646f" data-original="#ff646f" style="" class=""/><path xmlns="http://www.w3.org/2000/svg" d="m434.632812 240.09375-46.777343 212.609375c-5.496094 24.976563-27.628907 42.769531-53.203125 42.769531h32.027344c25.574218 0 47.707031-17.792968 53.199218-42.769531l46.777344-212.609375zm0 0" fill="#ff4755" data-original="#ff4755" style="" class=""/><path xmlns="http://www.w3.org/2000/svg" d="m458.015625 179.554688c-9.125-33.589844-33.414063-60.9375-65.0625-74.234376-13.210937-56.078124-63.566406-97.820312-123.679687-97.820312-46.070313 0-86.417969 24.519531-108.695313 61.222656-65.371094 2.433594-118.113281 54.242188-122.019531 119.226563-19.328125 13.734375-31.757813 36.542969-31.027344 62.226562 1.105469 38.835938 32.785156 70.457031 71.625 71.5 9.949219.265625 19.472656-1.445312 28.199219-4.765625 5.988281-2.277344 12.59375-2.351562 18.6875-.367187 33.40625 10.871093 71.429687 7.710937 103.664062-11.253907 18.992188-11.171874 42.507813-11.316406 61.339844.125 29.113281 17.683594 63.464844 20.492188 93.304687 10.746094 6.367188-2.082031 13.257813-2.035156 19.488282.425782 8.839844 3.488281 18.511718 5.320312 28.640625 5.097656 39.125-.863282 71.082031-32.765625 72-71.890625.746093-31.839844-18.722657-59.210938-46.464844-70.238281zm0 0" fill="#855151" data-original="#855151" style="" class=""/><path xmlns="http://www.w3.org/2000/svg" d="m504.480469 249.792969c.746093-31.839844-18.722657-59.210938-46.464844-70.238281-9.125-33.589844-33.414063-60.9375-65.0625-74.234376-13.210937-56.078124-63.566406-97.820312-123.679687-97.820312-5.367188 0-10.652344.332031-15.84375.976562 52.957031 6.589844 95.800781 45.773438 107.832031 96.84375 31.652343 13.296876 55.9375 40.644532 65.066406 74.234376 27.738281 11.027343 47.207031 38.398437 46.460937 70.238281-.785156 33.554687-24.414062 62.660156-55.804687 70.601562 5.003906.957031 10.1875 1.40625 15.496094 1.289063 39.125-.863282 71.085937-32.765625 72-71.890625zm0 0" fill="#704444" data-original="#704444" style=""/><path xmlns="http://www.w3.org/2000/svg" d="m460.589844 249.664062c0 15.242188-12.355469 27.597657-27.597656 27.597657-15.242188 0-27.597657-12.355469-27.597657-27.597657 0-15.242187 12.355469-27.597656 27.597657-27.597656 15.242187 0 27.597656 12.355469 27.597656 27.597656zm0 0" fill="#ff94d4" data-original="#ff94d4" style=""/><path xmlns="http://www.w3.org/2000/svg" d="m349.464844 93.167969c0 12.65625-10.261719 22.917969-22.917969 22.917969s-22.917969-10.261719-22.917969-22.917969 10.261719-22.917969 22.917969-22.917969 22.917969 10.261719 22.917969 22.917969zm0 0" fill="#ff9838" data-original="#ff9838" style=""/><path xmlns="http://www.w3.org/2000/svg" d="m114.117188 244.984375c0 13.945313-11.304688 25.253906-25.253907 25.253906s-25.257812-11.308593-25.257812-25.253906c0-13.949219 11.308593-25.257813 25.257812-25.257813s25.253907 11.308594 25.253907 25.257813zm0 0" fill="#cc98e8" data-original="#cc98e8" style="" class=""/><path xmlns="http://www.w3.org/2000/svg" d="m199.003906 138.539062c0 18.753907-15.203125 33.953126-33.953125 33.953126-18.753906 0-33.953125-15.199219-33.953125-33.953126 0-18.75 15.199219-33.953124 33.953125-33.953124 18.75 0 33.953125 15.203124 33.953125 33.953124zm0 0" fill="#ff646f" data-original="#ff646f" style="" class=""/><path xmlns="http://www.w3.org/2000/svg" d="m315.265625 227.585938c0 13.199218-10.703125 23.898437-23.902344 23.898437-13.203125 0-23.902343-10.699219-23.902343-23.898437 0-13.203126 10.699218-23.902344 23.902343-23.902344 13.199219 0 23.902344 10.699218 23.902344 23.902344zm0 0" fill="#6bdae8" data-original="#6bdae8" style=""/><path xmlns="http://www.w3.org/2000/svg" d="m142.53125 454.171875-14.953125-85.089844c-1.714844-9.761719 13.058594-12.375 14.773437-2.597656l14.953126 85.09375c1.707031 9.703125-13.027344 12.53125-14.773438 2.59375zm0 0" fill="#000000" data-original="#000000" style="" class=""/><path xmlns="http://www.w3.org/2000/svg" d="m213.152344 453.3125-4.984375-85.089844c-.578125-9.90625 14.394531-10.792968 14.976562-.878906l4.984375 85.09375c.582032 9.933594-14.390625 10.867188-14.976562.875zm0 0" fill="#000000" data-original="#000000" style="" class=""/><path xmlns="http://www.w3.org/2000/svg" d="m283.875 452.4375 4.984375-85.09375c.582031-9.929688 15.554687-9.015625 14.972656.878906l-4.980469 85.089844c-.582031 9.902344-15.558593 9.035156-14.976562-.875zm0 0" fill="#000000" data-original="#000000" style="" class=""/><path xmlns="http://www.w3.org/2000/svg" d="m354.695312 451.578125 14.953126-85.09375c1.714843-9.765625 16.492187-7.183594 14.773437 2.597656l-14.953125 85.089844c-1.742188 9.9375-16.476562 7.109375-14.773438-2.59375zm0 0" fill="#000000" data-original="#000000" style="" class=""/><path xmlns="http://www.w3.org/2000/svg" d="m123.71875 323.675781c-13.410156-4.363281-17.765625 6.253907-44.765625 5.496094-42.824219-1.148437-77.699219-35.933594-78.921875-78.78125-.738281-25.96875 10.902344-50.527344 31.296875-66.410156 2.367187-27.550781 12.976563-53.269531 30.804687-74.582031 6.359376-7.601563 17.878907 2.007812 11.503907 9.625-16.507813 19.734374-26.050781 43.726562-27.59375 69.375-.136719 2.265624-1.289063 4.351562-3.140625 5.664062-18.085938 12.851562-28.503906 33.75-27.875 55.898438.992187 34.867187 29.441406 63.28125 64.328125 64.21875 25.003906.6875 29.066406-11.253907 49.003906-4.765626 32.550781 10.589844 68.105469 6.730469 97.542969-10.589843 21.542968-12.671875 47.996094-12.605469 69.039062.179687 26.171875 15.898438 57.914063 19.554688 87.082032 10.027344 20.320312-6.640625 25.363281 5.703125 50.292968 5.152344 35.125-.773438 63.84375-29.421875 64.664063-64.566406.648437-27.558594-16.125-52.914063-41.734375-63.09375-2.191406-.871094-3.847656-2.722657-4.46875-5-8.40625-30.941407-31.109375-56.84375-60.730469-69.289063-2.210937-.929687-3.847656-2.859375-4.398437-5.191406-12.164063-51.644531-58.671876-92.042969-116.375-92.042969-43.125 0-81.210938 22.894531-102.285157 57.613281-1.308593 2.15625-3.613281 3.511719-6.132812 3.605469-24.070313.894531-47.027344 8.917969-66.386719 23.207031-7.980469 5.886719-16.898438-6.171875-8.90625-12.070312 20.71875-15.292969 45.097656-24.210938 70.734375-25.917969 24.378906-37.582031 66.367187-61.4375 112.976563-61.4375 61.015624 0 114.410156 41.140625 130.058593 99.933594 31.023438 14.230468 54.933594 41.53125 64.898438 74.117187 29.460937 13.328125 48.507812 43.371094 47.746093 75.917969-1.007812 43.144531-36.160156 78.261719-79.332031 79.210938-27.367187.632812-31.871093-10.5-45.964843-5.890626-33.332032 10.890626-69.609376 6.710938-99.527344-11.46875-16.316406-9.910156-36.871094-9.933593-53.644532-.066406-32.707031 19.242188-72.691406 23.988282-109.789062 11.921875zm0 0" fill="#000000" data-original="#000000" style="" class=""/><path xmlns="http://www.w3.org/2000/svg" d="m366.679688 502.972656h-221.355469c-28.925781 0-54.242188-20.109375-60.527344-48.65625l-22.5625-102.554687c-2.132813-9.695313 12.519531-12.914063 14.648437-3.222657l22.5625 102.554688c4.703126 21.367188 23.996094 36.878906 45.878907 36.878906h221.355469c21.878906 0 41.171874-15.511718 45.875-36.878906l22.589843-102.679688c2.132813-9.695312 16.78125-6.46875 14.652344 3.222657l-22.59375 102.679687c-6.210937 28.242188-31.289063 48.65625-60.523437 48.65625zm0 0" fill="#000000" data-original="#000000" style="" class=""/><path xmlns="http://www.w3.org/2000/svg" d="m432.992188 284.761719c-19.355469 0-35.097657-15.746094-35.097657-35.097657 0-19.355468 15.742188-35.097656 35.097657-35.097656 19.351562 0 35.097656 15.742188 35.097656 35.097656 0 19.351563-15.746094 35.097657-35.097656 35.097657zm0-55.195313c-11.082032 0-20.097657 9.015625-20.097657 20.097656 0 11.082032 9.015625 20.097657 20.097657 20.097657 11.082031 0 20.097656-9.015625 20.097656-20.097657 0-11.082031-9.015625-20.097656-20.097656-20.097656zm0 0" fill="#000000" data-original="#000000" style="" class=""/><path xmlns="http://www.w3.org/2000/svg" d="m326.546875 123.585938c-16.773437 0-30.417969-13.644532-30.417969-30.417969 0-16.773438 13.644532-30.417969 30.417969-30.417969 16.769531 0 30.417969 13.644531 30.417969 30.417969 0 16.773437-13.644532 30.417969-30.417969 30.417969zm0-45.835938c-8.503906 0-15.417969 6.917969-15.417969 15.417969s6.914063 15.417969 15.417969 15.417969c8.5 0 15.417969-6.917969 15.417969-15.417969s-6.917969-15.417969-15.417969-15.417969zm0 0" fill="#000000" data-original="#000000" style="" class=""/><path xmlns="http://www.w3.org/2000/svg" d="m88.863281 277.738281c-18.0625 0-32.757812-14.691406-32.757812-32.753906s14.695312-32.757813 32.757812-32.757813 32.753907 14.695313 32.753907 32.757813-14.691407 32.753906-32.753907 32.753906zm0-50.511719c-9.792969 0-17.757812 7.964844-17.757812 17.757813 0 9.789063 7.964843 17.753906 17.757812 17.753906 9.789063 0 17.753907-7.964843 17.753907-17.753906 0-9.792969-7.964844-17.757813-17.753907-17.757813zm0 0" fill="#000000" data-original="#000000" style="" class=""/><path xmlns="http://www.w3.org/2000/svg" d="m165.050781 179.992188c-22.859375 0-41.453125-18.59375-41.453125-41.449219 0-22.859375 18.59375-41.453125 41.453125-41.453125 22.855469 0 41.453125 18.59375 41.453125 41.453125-.003906 22.855469-18.597656 41.449219-41.453125 41.449219zm0-67.90625c-14.585937 0-26.453125 11.867187-26.453125 26.453124 0 14.585938 11.867188 26.453126 26.453125 26.453126 14.585938 0 26.453125-11.867188 26.453125-26.453126 0-14.585937-11.867187-26.453124-26.453125-26.453124zm0 0" fill="#000000" data-original="#000000" style="" class=""/><path xmlns="http://www.w3.org/2000/svg" d="m291.363281 258.984375c-17.316406 0-31.402343-14.085937-31.402343-31.398437 0-17.316407 14.085937-31.402344 31.402343-31.402344 17.3125 0 31.398438 14.085937 31.398438 31.402344.003906 17.3125-14.085938 31.398437-31.398438 31.398437zm0-47.800781c-9.046875 0-16.402343 7.355468-16.402343 16.398437 0 9.046875 7.355468 16.402344 16.402343 16.402344 9.042969 0 16.398438-7.355469 16.398438-16.402344 0-9.042969-7.355469-16.398437-16.398438-16.398437zm0 0" fill="#000000" data-original="#000000" style="" class=""/></g></svg>
