<?xml version="1.0"?>
<svg xmlns="http://www.w3.org/2000/svg" xmlns:xlink="http://www.w3.org/1999/xlink" xmlns:svgjs="http://svgjs.com/svgjs" version="1.1" width="512" height="512" x="0" y="0" viewBox="0 0 502.112 502.112" style="enable-background:new 0 0 512 512" xml:space="preserve" class=""><g>
<g xmlns="http://www.w3.org/2000/svg">
	<g>
		<path d="M474.84,207.184c-2.224-75.16-40.376-144.408-103.192-186.288L340.304,0l-4.272,47.024    c-2.64,29.008-23.544,52.6-52.032,58.704c-37.632,8.064-64.944,41.856-64.944,80.336v21.176c-0.776,0.2-1.568,0.344-2.328,0.608    c-1.88-0.68-3.848-1.128-5.888-1.392c-1.064-13.672-7.944-26.464-18.976-34.752c-8.016-6.008-12.808-15.576-12.808-25.592V119.68    l-42.32,26.448c-21.4,13.376-34.848,35.544-37.192,60.304c-13.752,1.608-24.488,13.192-24.488,27.36    c0,6.016,1.92,11.624,5.248,16.232C48.128,269.952,33.888,299,29.232,310.704c-14.872,2.752-26.176,15.752-26.176,31.408    l41.832,160h220.328l27.368-104h164.632l41.568-157.968l0.272-2.032C499.056,223.168,488.72,210.68,474.84,207.184z     M458.848,207.296c-6.184,1.648-11.672,5.008-15.792,9.672c-4.2-4.76-9.824-8.192-16.168-9.8    c-0.824-49.28-10.424-97.384-28.592-143.24C435.32,102.2,457.152,153.056,458.848,207.296z M235.056,186.072    c0-31,21.992-58.208,52.304-64.696c32.48-6.968,56.984-32.264,63.312-64.264c6.736,29.624-8.128,61.04-36.296,74.04    c-28.744,13.272-47.32,42.296-47.32,73.96v2.12c-6.272,1.632-11.84,5.024-16,9.744c-4.16-4.72-9.728-8.112-16-9.744V186.072z     M232.952,223.272c5.904,2.352,10.104,8.104,10.104,14.84l3.88,24.68c-5.048-4.488-10.72-8.8-17.128-12.768    c3.328-4.608,5.248-10.216,5.248-16.232C235.056,230.064,234.296,226.52,232.952,223.272z M102.736,222.112h28.32v-16H115.56    c2.352-19.072,13.056-36.04,29.656-46.416l17.896-11.184c0.72,14.144,7.76,27.464,19.136,36c6.928,5.2,11.232,13.096,12.328,21.6    h-15.52v16h28.32c6.44,0,11.68,5.24,11.68,11.68c0,4.864-2.904,9.136-7.4,10.88c-11.072,4.304-29.88,9.44-56.6,9.44    c-26.72,0-45.528-5.136-56.6-9.44c-4.496-1.744-7.4-6.016-7.4-10.88C91.056,227.352,96.296,222.112,102.736,222.112z     M89.888,486.112L75.8,396.864L60,399.36l13.696,86.752h-16.48L19.08,341.184c0.48-8.392,7.472-15.072,15.976-15.072    c8.824,0,16,7.176,16,16l6.416,41.248l15.8-2.496l-6.176-39.128c0.208-8.648,7.272-15.624,15.96-15.624c8.824,0,16,7.176,16,16    l15.12,144H89.888z M147.056,486.112h-16.8L115.08,341.896c0.12-8.72,7.232-15.784,15.976-15.784c8.824,0,16,7.176,16,16V486.112z     M155.056,320.968c-5.864-6.656-14.456-10.856-24-10.856s-18.136,4.2-24,10.856c-5.864-6.656-14.456-10.856-24-10.856    s-18.136,4.2-24,10.856c-3.488-3.952-8-6.888-13.04-8.744c5.76-12.512,19.904-36.608,48.48-51.968    c12.52,4.648,32.688,9.856,60.56,9.856s48.04-5.208,60.56-9.856c28.408,15.272,42.64,39.44,48.448,51.984    c-5.024,1.856-9.536,4.784-13.008,8.736c-5.864-6.664-14.456-10.864-24-10.864s-18.136,4.2-24,10.856    c-5.864-6.656-14.456-10.856-24-10.856S160.92,314.312,155.056,320.968z M179.856,486.112h-16.8v-144c0-8.824,7.176-16,16-16    c8.744,0,15.856,7.064,15.976,15.784L179.856,486.112z M195.936,486.112l15.072-143.168l0.008-0.832h0.04c0-8.824,7.176-16,16-16    c8.688,0,15.752,6.976,15.96,15.616l-22.792,144.384H195.936z M252.888,486.112h-16.48l22.536-142.752l0.024-1.248h0.088    c0-8.824,7.176-16,16-16c8.504,0,15.496,6.68,15.976,15.072L252.888,486.112z M280.88,310.704c-2.24-5.632-6.72-15.288-14.312-26    l-7.48-46.968c0.216-8.648,7.28-15.624,15.968-15.624c8.824,0,16,7.176,16,16l8.824,84.056    C295.176,316.32,288.552,312.12,280.88,310.704z M296.8,382.112l6.704-25.464l2.672,25.464H296.8z M339.056,382.112h-16.8    L307.08,237.896c0.12-8.72,7.232-15.784,15.976-15.784c8.824,0,16,7.176,16,16V382.112z M347.056,216.968    c-3.968-4.496-9.24-7.736-15.152-9.456c2.056-8.608,7.992-15.912,16.368-19.504l11.864-5.096    c13.056-5.592,22.704-17.192,25.832-31.048l-15.608-3.512c-1.992,8.856-8.168,16.28-16.52,19.856l-11.864,5.096    c-14.144,6.056-23.92,18.864-26.312,33.712c-6.528,1.552-12.304,5.072-16.6,9.944c-4.16-4.72-9.728-8.112-16-9.744v-2.12    c0-25.44,14.92-48.768,38.024-59.432c38.144-17.6,56.768-62.312,42.408-101.784l-4.424-12.168l3.712,2.472    c2.872,1.944,5.648,3.984,8.416,6.024l9.712,23.136c19.128,45.928,29.128,94.328,29.984,143.944    c-6.2,1.648-11.712,5.008-15.832,9.688c-5.872-6.664-14.464-10.864-24.008-10.864S352.92,210.312,347.056,216.968z     M371.856,382.112h-16.8v-144c0-8.824,7.176-16,16-16c8.744,0,15.856,7.064,15.976,15.784L371.856,382.112z M444.888,382.112    h-16.48l2.328-14.752l-15.8-2.496l-2.712,17.248h-24.288l15.072-143.168l0.008-0.832h0.04c0-8.824,7.176-16,16-16    c8.688,0,15.752,6.976,15.96,15.616l-17.544,111.136l15.8,2.496l17.688-112l0.008-1.248h0.088c0-8.824,7.176-16,16-16    c8.504,0,15.496,6.672,15.976,15.064L444.888,382.112z" fill="#ffffff" data-original="#000000" style="" class=""/>
	</g>
</g>
<g xmlns="http://www.w3.org/2000/svg">
	<g>
		<rect x="147.056" y="278.112" width="16" height="16" fill="#ffffff" data-original="#000000" style="" class=""/>
	</g>
</g>
<g xmlns="http://www.w3.org/2000/svg">
	<g>
		<rect x="195.056" y="278.112" width="16" height="16" fill="#ffffff" data-original="#000000" style="" class=""/>
	</g>
</g>
<g xmlns="http://www.w3.org/2000/svg">
	<g>
		<rect x="99.056" y="278.112" width="16" height="16" fill="#ffffff" data-original="#000000" style="" class=""/>
	</g>
</g>
<g xmlns="http://www.w3.org/2000/svg">
	<g>
		<rect x="371.056" y="118.112" width="16" height="16" fill="#ffffff" data-original="#000000" style="" class=""/>
	</g>
</g>
<g xmlns="http://www.w3.org/2000/svg">
</g>
<g xmlns="http://www.w3.org/2000/svg">
</g>
<g xmlns="http://www.w3.org/2000/svg">
</g>
<g xmlns="http://www.w3.org/2000/svg">
</g>
<g xmlns="http://www.w3.org/2000/svg">
</g>
<g xmlns="http://www.w3.org/2000/svg">
</g>
<g xmlns="http://www.w3.org/2000/svg">
</g>
<g xmlns="http://www.w3.org/2000/svg">
</g>
<g xmlns="http://www.w3.org/2000/svg">
</g>
<g xmlns="http://www.w3.org/2000/svg">
</g>
<g xmlns="http://www.w3.org/2000/svg">
</g>
<g xmlns="http://www.w3.org/2000/svg">
</g>
<g xmlns="http://www.w3.org/2000/svg">
</g>
<g xmlns="http://www.w3.org/2000/svg">
</g>
<g xmlns="http://www.w3.org/2000/svg">
</g>
</g></svg>
